<svg width="144" height="113" viewBox="0 0 144 113" fill="none" xmlns="http://www.w3.org/2000/svg">
<g clip-path="url(#clip0_7_13)">
<path d="M78 35.08L75.21 42.63C75.1829 42.7038 75.1279 42.764 75.0568 42.7977C74.9858 42.8314 74.9043 42.8358 74.83 42.81C74.76 42.781 74.703 42.7274 74.6698 42.6592C74.6366 42.591 74.6296 42.513 74.65 42.44L77 34.74C77.011 34.6642 77.0382 34.5916 77.0799 34.5274C77.1216 34.4631 77.1768 34.4086 77.2415 34.3677C77.3063 34.3268 77.3792 34.3004 77.4551 34.2904C77.5311 34.2803 77.6083 34.2869 77.6815 34.3096C77.7547 34.3323 77.8221 34.3705 77.879 34.4218C77.936 34.473 77.9812 34.536 78.0114 34.6064C78.0417 34.6767 78.0564 34.7528 78.0544 34.8294C78.0524 34.906 78.0339 34.9813 78 35.05" fill="#FBFBFF"/>
<path d="M81.26 50.81L132.32 50.23C132.47 50.23 132.613 50.2887 132.72 50.3934C132.826 50.4981 132.887 50.6406 132.89 50.79C132.891 50.8644 132.878 50.9383 132.85 51.0074C132.823 51.0765 132.782 51.1394 132.73 51.1925C132.677 51.2455 132.615 51.2877 132.547 51.3164C132.478 51.3452 132.404 51.36 132.33 51.36H81.26C81.2195 51.3678 81.1778 51.3665 81.1379 51.3562C81.0979 51.346 81.0608 51.3271 81.029 51.3008C80.9972 51.2745 80.9716 51.2416 80.954 51.2043C80.9365 51.167 80.9274 51.1262 80.9274 51.085C80.9274 51.0438 80.9365 51.003 80.954 50.9657C80.9716 50.9284 80.9972 50.8955 81.029 50.8692C81.0608 50.8429 81.0979 50.824 81.1379 50.8138C81.1778 50.8035 81.2195 50.8022 81.26 50.81Z" fill="#FBFBFF"/>
<path d="M109.1 40.78L80.91 48.28C80.8411 48.2984 80.7676 48.2887 80.7058 48.2531C80.644 48.2175 80.5987 48.1589 80.58 48.09C80.5609 48.0211 80.5689 47.9474 80.6024 47.8842C80.6358 47.821 80.6922 47.773 80.76 47.75L108.76 39.75C108.901 39.7127 109.05 39.7315 109.177 39.8024C109.304 39.8733 109.398 39.9908 109.44 40.13C109.461 40.1996 109.468 40.2728 109.46 40.3451C109.453 40.4174 109.43 40.4875 109.395 40.551C109.359 40.6145 109.311 40.6702 109.254 40.7147C109.196 40.7592 109.13 40.7916 109.06 40.81L109.1 40.78Z" fill="#FBFBFF"/>
<path d="M90.9 36.62L78.9 45.28C78.8685 45.3036 78.8326 45.3208 78.7945 45.3306C78.7563 45.3404 78.7166 45.3426 78.6776 45.337C78.6386 45.3314 78.6011 45.3182 78.5672 45.2981C78.5333 45.2781 78.5036 45.2515 78.48 45.22C78.4566 45.1893 78.4396 45.1542 78.43 45.1169C78.4203 45.0795 78.4182 45.0406 78.4238 45.0024C78.4294 44.9642 78.4426 44.9275 78.4625 44.8945C78.4825 44.8614 78.5088 44.8327 78.54 44.81L90.24 35.81C90.2934 35.7584 90.357 35.7185 90.4268 35.6931C90.4965 35.6676 90.5709 35.6571 90.6449 35.6622C90.719 35.6673 90.7912 35.6879 90.8568 35.7227C90.9224 35.7575 90.98 35.8057 91.0257 35.8642C91.0715 35.9226 91.1045 35.9901 91.1226 36.0621C91.1406 36.1341 91.1433 36.2092 91.1305 36.2823C91.1177 36.3554 91.0897 36.4251 91.0483 36.4867C91.0068 36.5483 90.9529 36.6006 90.89 36.64V36.64" fill="#FBFBFF"/>
<path d="M65.92 35.08L68.72 42.63C68.7325 42.6661 68.752 42.6994 68.7773 42.728C68.8027 42.7566 68.8334 42.7799 68.8678 42.7966C68.9021 42.8133 68.9394 42.8231 68.9776 42.8254C69.0157 42.8277 69.0539 42.8225 69.09 42.81C69.1261 42.7975 69.1594 42.7781 69.188 42.7527C69.2166 42.7274 69.2399 42.6966 69.2567 42.6623C69.2734 42.6279 69.2832 42.5906 69.2855 42.5525C69.2877 42.5143 69.2825 42.4761 69.27 42.44L66.92 34.74C66.9091 34.6642 66.8818 34.5916 66.8401 34.5274C66.7984 34.4631 66.7433 34.4086 66.6785 34.3677C66.6137 34.3268 66.5409 34.3004 66.4649 34.2904C66.389 34.2803 66.3117 34.2869 66.2385 34.3096C66.1654 34.3323 66.098 34.3705 66.041 34.4218C65.9841 34.473 65.9389 34.536 65.9086 34.6064C65.8783 34.6767 65.8637 34.7528 65.8657 34.8294C65.8676 34.906 65.8862 34.9813 65.92 35.05" fill="#FBFBFF"/>
<path d="M62.61 50.81L11.61 50.23C11.4605 50.23 11.3171 50.2887 11.2104 50.3934C11.1038 50.4981 11.0426 50.6406 11.04 50.79C11.0387 50.8644 11.0522 50.9383 11.0797 51.0074C11.1073 51.0765 11.1483 51.1394 11.2004 51.1925C11.2526 51.2455 11.3148 51.2877 11.3834 51.3164C11.452 51.3452 11.5256 51.36 11.6 51.36H62.61C62.6505 51.3678 62.6922 51.3665 62.7322 51.3562C62.7721 51.346 62.8093 51.3271 62.8411 51.3008C62.8729 51.2745 62.8985 51.2416 62.916 51.2043C62.9336 51.167 62.9427 51.1262 62.9427 51.085C62.9427 51.0438 62.9336 51.003 62.916 50.9657C62.8985 50.9284 62.8729 50.8955 62.8411 50.8692C62.8093 50.8429 62.7721 50.824 62.7322 50.8138C62.6922 50.8035 62.6505 50.8022 62.61 50.81Z" fill="#FBFBFF"/>
<path d="M34.78 40.78L63 48.28C63.069 48.2984 63.1424 48.2887 63.2042 48.2531C63.2661 48.2175 63.3113 48.1588 63.33 48.09C63.3487 48.0197 63.3393 47.945 63.3038 47.8816C63.2684 47.8181 63.2096 47.7709 63.14 47.75L35.14 39.75C34.9996 39.7152 34.8513 39.7352 34.725 39.8057C34.5987 39.8763 34.504 39.9922 34.46 40.13C34.4227 40.2705 34.4415 40.42 34.5124 40.5469C34.5834 40.6738 34.7008 40.7681 34.84 40.81V40.81" fill="#FBFBFF"/>
<path d="M53 36.62L65 45.28C65.0297 45.3117 65.0661 45.3366 65.1064 45.3529C65.1468 45.3691 65.1902 45.3764 65.2337 45.3743C65.2772 45.3721 65.3196 45.3605 65.3582 45.3402C65.3967 45.32 65.4303 45.2916 65.4568 45.2571C65.4833 45.2225 65.5019 45.1826 65.5114 45.1401C65.5209 45.0977 65.5211 45.0536 65.5118 45.0111C65.5026 44.9686 65.4843 44.9286 65.458 44.8938C65.4318 44.8591 65.3983 44.8305 65.36 44.81L53.66 35.81C53.6066 35.7584 53.543 35.7185 53.4732 35.6931C53.4034 35.6676 53.3291 35.6571 53.255 35.6622C53.1809 35.6673 53.1088 35.6879 53.0432 35.7227C52.9775 35.7575 52.92 35.8057 52.8742 35.8642C52.8284 35.9226 52.7954 35.9901 52.7774 36.0621C52.7593 36.1341 52.7566 36.2092 52.7694 36.2823C52.7822 36.3554 52.8102 36.4251 52.8517 36.4867C52.8931 36.5483 52.947 36.6006 53.01 36.64V36.64" fill="#FBFBFF"/>
<path d="M78 51.36C78 49.7475 77.3594 48.201 76.2192 47.0608C75.079 45.9206 73.5325 45.28 71.92 45.28C70.3075 45.28 68.761 45.9206 67.6208 47.0608C66.4805 48.201 65.84 49.7475 65.84 51.36H78Z" fill="#FBFBFF"/>
<path d="M52.66 58.31H47.64V93.38H52.66V58.31Z" fill="#FBFBFF"/>
<path d="M13.74 58.31V73.34H5.02V58.31H0V93.38H5.02V78.35H13.74V93.38H18.75V78.35V73.34V58.31H13.74Z" fill="#FBFBFF"/>
<path d="M97.85 58.31V73.34H89.13V58.31H84.11V93.38H89.13V78.35H97.85V93.38H102.86V78.35V73.34V58.31H97.85Z" fill="#FBFBFF"/>
<path d="M124.44 58.31H117.39H112.37H105.8V63.32H112.62V93.38H117.63V63.32H124.44V58.31Z" fill="#FBFBFF"/>
<path d="M71 5V0H57.52V5H61.77V29.71C63.43 29.5767 65.0967 29.4767 66.77 29.41V5H71Z" fill="#FBFBFF"/>
<path d="M83.75 0V12.84L79 12.61V0H74V29.31C75.69 29.31 77.36 29.39 79 29.47V17.09L83.75 17.32V29.81C85.43 29.9633 87.0967 30.1433 88.75 30.35V0H83.75Z" fill="#FBFBFF"/>
<path d="M139.25 0V27.92L132.63 0H128.42V42.19C130.02 42.97 131.6 43.78 133.16 44.62V20.19L139.77 48.43C141.197 49.3233 142.607 50.2333 144 51.16V0H139.25Z" fill="#FBFBFF"/>
<path d="M42.6 63.32V58.32H27.91C27.2443 58.32 26.6059 58.5845 26.1352 59.0552C25.6645 59.5259 25.4 60.1643 25.4 60.83V90.87C25.4 91.5357 25.6645 92.1741 26.1352 92.6448C26.6059 93.1156 27.2443 93.38 27.91 93.38H42.6V88.38H30.42V78.38H41.52V73.38H30.42V63.38L42.6 63.32Z" fill="#FBFBFF"/>
<path d="M12.5899 0H2.82995C2.16425 0 1.52582 0.264446 1.05511 0.735162C0.584392 1.20588 0.319946 1.84431 0.319946 2.51V15.92L10.0799 27.53V39.25C8.47995 40.09 6.89661 40.96 5.32995 41.86V31.26H0.329946V46.49V46.56C0.330511 47.0118 0.453 47.455 0.684491 47.843C0.915982 48.2309 1.24789 48.5492 1.64521 48.7643C2.04252 48.9793 2.49051 49.0831 2.94192 49.0648C3.39332 49.0464 3.8314 48.9066 4.20995 48.66V48.66C7.27661 46.7533 10.4266 44.97 13.6599 43.31C14.0746 43.1129 14.4267 42.8049 14.6773 42.4202C14.9279 42.0355 15.0673 41.589 15.0799 41.13V41.13V25.26L5.33995 13.77V5H10.0799V12.51H15.0799V2.51C15.08 1.84776 14.8183 1.21234 14.3519 0.742196C13.8855 0.27205 13.2522 0.00527683 12.5899 0" fill="#FBFBFF"/>
<path d="M118.65 16.52L114.36 15.89V5H118.65V16.52ZM123.65 2.52C123.653 1.85603 123.392 1.21805 122.925 0.745742C122.459 0.273435 121.824 0.00528531 121.16 0L109.35 0V34.74C111.03 35.2467 112.697 35.7867 114.35 36.36V20.54L116.47 20.9L118.83 38C120.52 38.65 122.27 39.38 123.93 40.09C123.93 40.09 121.36 21.29 121.39 21.28C122.021 21.1974 122.6 20.888 123.02 20.4096C123.439 19.9311 123.67 19.3163 123.67 18.68V2.51L123.65 2.52Z" fill="#FBFBFF"/>
<path d="M54.8299 28.17V25.17V0H49.8299V25.86C48.2299 26.12 46.6499 26.41 45.0799 26.73V0H40.0799V28.64V29.84C40.0748 29.9199 40.0748 30.0001 40.0799 30.08C40.0799 30.744 40.343 31.3809 40.8116 31.8513C41.2801 32.3217 41.916 32.5874 42.5799 32.59H42.8299L43.0799 32.54C46.0199 31.8733 48.9966 31.3033 52.0099 30.83L52.8099 30.71C53.3754 30.5926 53.8832 30.2839 54.2475 29.8357C54.6118 29.3876 54.8105 28.8275 54.8099 28.25V28.18" fill="#FBFBFF"/>
<path d="M29.79 30.88C28.09 31.45 26.42 32.03 24.79 32.66V5H29.79V30.88ZM34.79 2.51C34.79 1.84604 34.5269 1.20912 34.0583 0.738688C33.5898 0.268258 32.9539 0.00264528 32.29 0L22.29 0C21.6243 0 20.9858 0.264446 20.5151 0.735162C20.0444 1.20588 19.78 1.84431 19.78 2.51V36.33C19.775 36.4199 19.775 36.5101 19.78 36.6C19.78 36.9291 19.845 37.2551 19.9712 37.559C20.0975 37.863 20.2825 38.139 20.5157 38.3713C20.7489 38.6036 21.0257 38.7875 21.3302 38.9126C21.6347 39.0376 21.9608 39.1013 22.29 39.1C22.6347 39.0942 22.9747 39.0194 23.29 38.88C26.13 37.71 29.03 36.64 31.97 35.68L33.13 35.3C33.6074 35.1292 34.0222 34.8183 34.3202 34.4079C34.6181 33.9976 34.7853 33.5069 34.8 33V2.51H34.79Z" fill="#FBFBFF"/>
<path d="M141.49 58.31H129.31C128.644 58.31 128.006 58.5744 127.535 59.0452C127.064 59.5159 126.8 60.1543 126.8 60.82C126.8 60.91 126.8 61.01 126.8 61.11V71.11L139 81.22V88.36H131.83V81.36H126.83V90.92C126.83 91.5857 127.094 92.2241 127.565 92.6948C128.036 93.1656 128.674 93.43 129.34 93.43H141.52C142.181 93.4221 142.811 93.1542 143.276 92.6843C143.74 92.2145 144 91.5805 144 90.92V90.92V79.07L131.82 69V63.32H139V68.25H144V60.82C144 60.1543 143.736 59.5159 143.265 59.0452C142.794 58.5744 142.156 58.31 141.49 58.31" fill="#FBFBFF"/>
<path d="M75 58.31H61.81C61.4808 58.31 61.1549 58.375 60.8509 58.5013C60.547 58.6275 60.2709 58.8126 60.0386 59.0458C59.8064 59.279 59.6224 59.5557 59.4974 59.8602C59.3723 60.1647 59.3086 60.4909 59.31 60.82V60.82V90.82C59.3086 91.1491 59.3723 91.4753 59.4974 91.7798C59.6224 92.0842 59.8064 92.361 60.0386 92.5942C60.2709 92.8274 60.547 93.0125 60.8509 93.1387C61.1549 93.265 61.4808 93.33 61.81 93.33H75C75.3296 93.33 75.656 93.2651 75.9605 93.1389C76.265 93.0128 76.5417 92.8279 76.7748 92.5948C77.0079 92.3618 77.1928 92.0851 77.3189 91.7805C77.445 91.476 77.51 91.1496 77.51 90.82V73.34H69.13V78.34H72.45V88.34H64.32V63.34H72.45V68.27H77.45V60.82C77.4501 60.1646 77.1939 59.5351 76.7361 59.066C76.2783 58.597 75.6552 58.3257 75 58.31Z" fill="#FBFBFF"/>
<path d="M105.62 28.25C103.34 27.67 101.04 27.14 98.73 26.68V18.52L104.54 19.17V14.7L98.73 14V5H105.62V0H96.22C95.8909 -2.63311e-06 95.565 0.0649917 95.261 0.191253C94.9571 0.317515 94.681 0.502558 94.4487 0.735765C94.2164 0.968972 94.0325 1.24575 93.9075 1.55022C93.7824 1.85469 93.7187 2.18085 93.72 2.51V29C93.7157 29.5785 93.913 30.1405 94.2779 30.5894C94.6429 31.0384 95.1528 31.3462 95.72 31.46C99.0534 32.08 102.337 32.8233 105.57 33.69L105.62 28.25Z" fill="#FBFBFF"/>
<path d="M23 108.19H21V110.66H23.13C24.24 110.66 24.72 110.21 24.72 109.4C24.72 108.59 24.03 108.19 23 108.19ZM22.91 104.36H21V106.64H22.8C23.86 106.64 24.37 106.13 24.37 105.48C24.37 104.83 23.96 104.36 22.91 104.36ZM23.64 112.21H18.83V102.81H23.4C25.73 102.81 26.56 103.81 26.56 105.04C26.56 106.27 25.8 107.1 24.02 107.43H24.15C25.93 107.43 26.91 108.28 26.91 109.67C26.91 111.06 25.97 112.21 23.67 112.21" fill="#FBFBFF"/>
<path d="M34.76 104.49H32.29V107.2H34.7C35.88 107.2 36.45 106.55 36.45 105.76C36.45 104.97 35.96 104.49 34.76 104.49V104.49ZM36 107.91H36.08C37.34 107.91 37.61 108.55 37.95 109.91C38.0987 110.736 38.4152 111.522 38.88 112.22H36.44C36.1152 111.739 35.8783 111.204 35.74 110.64C35.62 110.17 35.42 109.49 35.33 109.16C35.2981 108.98 35.1982 108.82 35.0511 108.712C34.904 108.604 34.721 108.557 34.54 108.58H32.29V112.22H30.09V102.82H35.09C37.63 102.82 38.66 104.02 38.66 105.38C38.66 106.74 37.77 107.73 35.98 107.92" fill="#FBFBFF"/>
<path d="M42.03 112.21V102.81H49.01V104.45H44.24V106.64H47.87V108.27H44.24V110.57H49.06V112.21H42.03Z" fill="#FBFBFF"/>
<path d="M61.7 109.53L63.3699 102.81H65.43L62.7999 112.21H60.57L58.66 105.27L56.61 112.21H54.38L51.7 102.81H53.97L55.5499 109.53L57.6399 102.81H59.74L61.7 109.53Z" fill="#FBFBFF"/>
<path d="M70.6 102.81H68.4V112.21H70.6V102.81Z" fill="#FBFBFF"/>
<path d="M76.39 105.8V112.21H74.34V102.81H76.47L80.86 109.26V102.81H82.91V112.21H80.8L76.39 105.8Z" fill="#FBFBFF"/>
<path d="M91.65 107.29H95.34V112.21H94.05L93.78 110.33C93.5871 110.958 93.1831 111.5 92.6364 111.865C92.0897 112.229 91.4339 112.394 90.78 112.33C90.1433 112.351 89.5092 112.238 88.919 111.999C88.3288 111.759 87.7957 111.398 87.3543 110.938C86.9129 110.479 86.5731 109.932 86.357 109.333C86.1409 108.733 86.0533 108.095 86.1 107.46C86.0601 106.799 86.1632 106.137 86.4023 105.519C86.6413 104.901 87.0106 104.342 87.4851 103.88C87.9596 103.418 88.528 103.064 89.1518 102.841C89.7756 102.618 90.4401 102.533 91.1 102.59C93.29 102.59 94.73 103.59 95.1 105.4L93.32 106.12C93.2338 105.579 92.9476 105.089 92.5181 104.748C92.0885 104.408 91.5468 104.241 91 104.28C89.27 104.28 88.39 105.77 88.39 107.51C88.39 109.25 89.29 110.76 91 110.76C91.2883 110.772 91.5761 110.726 91.8465 110.626C92.117 110.525 92.3647 110.372 92.5751 110.175C92.7856 109.977 92.9545 109.74 93.0721 109.476C93.1897 109.213 93.2536 108.928 93.26 108.64H91.65V107.29Z" fill="#FBFBFF"/>
<path d="M109.55 106.38C109.34 105.27 108.75 104.31 107.42 104.31C105.8 104.31 104.84 105.76 104.84 107.51C104.84 109.26 105.84 110.71 107.55 110.71C109.26 110.71 109.55 109.81 109.88 108.64L111.7 109.29C111.5 110.22 110.968 111.046 110.205 111.614C109.442 112.183 108.499 112.455 107.55 112.38C106.91 112.391 106.275 112.275 105.68 112.04C105.085 111.805 104.543 111.455 104.083 111.01C103.623 110.565 103.256 110.034 103.001 109.448C102.747 108.861 102.611 108.23 102.6 107.59C102.59 106.95 102.705 106.315 102.94 105.72C103.175 105.125 103.525 104.583 103.97 104.123C104.415 103.663 104.946 103.296 105.532 103.041C106.119 102.787 106.75 102.651 107.39 102.64C109.75 102.64 111.11 103.77 111.39 105.64L109.55 106.38Z" fill="#FBFBFF"/>
<path d="M119.26 104.28C117.57 104.28 116.59 105.74 116.59 107.51C116.59 109.28 117.59 110.74 119.26 110.74C120.93 110.74 121.93 109.27 121.93 107.51C121.93 105.75 120.93 104.28 119.26 104.28ZM119.26 112.38C118.298 112.374 117.36 112.083 116.563 111.545C115.766 111.006 115.146 110.243 114.782 109.353C114.418 108.463 114.326 107.484 114.517 106.542C114.709 105.599 115.175 104.734 115.857 104.056C116.539 103.378 117.407 102.917 118.351 102.731C119.295 102.546 120.272 102.644 121.161 103.014C122.049 103.383 122.808 104.007 123.341 104.808C123.875 105.608 124.16 106.548 124.16 107.51C124.192 108.161 124.087 108.81 123.851 109.418C123.616 110.025 123.255 110.576 122.794 111.035C122.332 111.494 121.778 111.851 121.17 112.083C120.561 112.315 119.91 112.416 119.26 112.38" fill="#FBFBFF"/>
<path d="M128.42 110.12H126.3V112.21H128.42V110.12Z" fill="#FBFBFF"/>
</g>
<defs>
<clipPath id="clip0_7_13">
<rect width="144" height="112.38" fill="white"/>
</clipPath>
</defs>
</svg>
