<?xml version="1.0" encoding="utf-8"?>
<!-- Generator: Adobe Illustrator 26.0.3, SVG Export Plug-In . SVG Version: 6.00 Build 0)  -->
<svg version="1.1" id="Layer_1" xmlns="http://www.w3.org/2000/svg" xmlns:xlink="http://www.w3.org/1999/xlink" x="0px" y="0px"
	 viewBox="0 0 560 560" style="enable-background:new 0 0 560 560;" xml:space="preserve">
<style type="text/css">
	.st0{fill:#FAFAFA;}
</style>
<path class="st0" d="M280,321.1c22.7,0,41.1-18.4,41.1-41.1s-18.4-41.1-41.1-41.1c-22.7,0-41.1,18.4-41.1,41.1
	S257.3,321.1,280,321.1z M368.7,200.8c12.4,0,22.4-10,22.4-22.4c0-12.4-10-22.4-22.4-22.4c-12.3,0-22.4,10-22.4,22.4
	C346.3,190.8,356.3,200.8,368.7,200.8z M362.2,280c0,45.4-36.8,82.2-82.2,82.2s-82.2-36.8-82.2-82.2c0-9.5,1.7-18.7,4.7-27.2h-39.7
	v111.4c0,19.2,15.7,35,35,35h158.5c19.2,0,35-15.7,35-35V217.8h-57.8C351,232.9,362.2,255.1,362.2,280L362.2,280z M280,0
	C125.4,0,0,125.4,0,280s125.4,280,280,280s280-125.4,280-280S434.6,0,280,0L280,0z M429.5,393.5c0,25.7-21,46.7-46.7,46.7H171.3
	c-25.7,0-46.7-21-46.7-46.7V182c0-25.7,21-46.7,46.7-46.7h211.5c25.7,0,46.7,21,46.7,46.7L429.5,393.5L429.5,393.5z"/>
</svg>
