<?xml version="1.0" encoding="utf-8"?>
<!-- Generator: Adobe Illustrator 26.0.3, SVG Export Plug-In . SVG Version: 6.00 Build 0)  -->
<svg version="1.1" id="Layer_1" xmlns="http://www.w3.org/2000/svg" xmlns:xlink="http://www.w3.org/1999/xlink" x="0px" y="0px"
	 viewBox="0 0 560 560" style="enable-background:new 0 0 560 560;" xml:space="preserve">
<style type="text/css">
	.st0{fill:#FAFAFA;}
</style>
<path class="st0" d="M466.8,0H92.6C41.6,0,0,41.6,0,92.6v374.8c0,51,41.6,92.6,92.6,92.6h374.8c51,0,92.6-41.6,92.6-92.6l0-374.8
	C559.4,41.6,517.7,0,466.8,0L466.8,0z M497.8,92.6v49.1c0,15.5-12.4,28-28,28h-51.6c-15.5,0-28-12.4-28-28V90.1
	c0-15.5,12.4-28,28-28h51.6c15.5,0,28,12.4,28,28V92.6z M386,279.7c0,59-47.9,106.3-106.3,106.3c-59,0-106.3-47.9-106.3-106.3
	s47.9-106.3,106.3-106.3S386,220.6,386,279.7z M466.8,497.8H92.6c-16.8,0-31.1-13.7-31.1-31.1V222.5h59.7c-6.2,18-9.9,36.7-9.9,57.2
	c0,92.6,75.2,167.8,168.4,167.8c92.6,0,167.8-75.2,167.8-167.8c0-19.9-3.7-39.2-9.9-57.2h59.7v244.3
	C497.8,484.2,484.2,497.8,466.8,497.8L466.8,497.8z"/>
</svg>
